<?xml version="1.0" encoding="UTF-8"?><svg xmlns="http://www.w3.org/2000/svg" viewBox="0 0 516.01 57.8"><defs><style>.d{fill:#fff;}</style></defs><g id="a"/><g id="b"><g id="c"><g><g><path class="d" d="M497.63,57.69v-5.01h11.49V5.94h-11.49V.66h18.38V57.69h-18.38Z"/><path class="d" d="M355.68,57.69V.66h18.38V5.94h-11.49V52.68h11.49v5.01h-18.38Z"/></g><polygon class="d" points="11.7 .34 0 .34 0 56.35 39.44 56.35 39.44 46.28 11.7 46.28 11.7 .34"/><rect class="d" x="46.82" width="10.98" height="9.99"/><rect class="d" x="46.82" y="14.93" width="10.98" height="41.42"/><path class="d" d="M97.74,17.31c-2.72-2.24-6.22-3.36-10.5-3.36-3.42,0-6.24,.84-8.47,2.51-1.24,.94-2.56,2.47-3.95,4.6v-6.04h-10.45V56.35h10.8v-22.42c0-2.56,.35-4.66,1.06-6.31,1.37-3.12,3.89-4.67,7.56-4.67,2.99,0,5.02,1.06,6.08,3.19,.58,1.17,.87,2.84,.87,5.02v25.19h11.1V28.46c0-5.19-1.37-8.91-4.09-11.15Z"/><polygon class="d" points="145.26 15.12 131.84 15.12 118.35 30.7 118.35 .53 107.71 .53 107.71 56.35 118.35 56.35 118.35 43.32 122.84 38.65 132.75 56.35 145.83 56.35 130.78 30.97 145.26 15.12"/><path class="d" d="M181.6,21.89c-1.8-2.79-4.08-4.83-6.84-6.12-2.76-1.29-5.86-1.94-9.31-1.94-5.8,0-10.52,1.91-14.15,5.74-3.64,3.83-5.45,9.32-5.45,16.49,0,7.65,2.01,13.17,6.04,16.57,4.03,3.39,8.68,5.09,13.95,5.09,6.38,0,11.35-2.01,14.9-6.04,2.28-2.53,3.56-5.03,3.84-7.49h-11.06c-.58,1.22-1.25,2.17-2.01,2.85-1.39,1.27-3.2,1.9-5.43,1.9-2.1,0-3.9-.52-5.4-1.56-2.46-1.67-3.76-4.59-3.91-8.74h28.35c.05-3.57-.06-6.31-.34-8.21-.48-3.24-1.53-6.09-3.15-8.55Zm-24.59,9.61c.35-2.69,1.22-4.81,2.6-6.38,1.38-1.57,3.33-2.36,5.83-2.36,2.31,0,4.24,.74,5.79,2.22s2.43,3.65,2.6,6.52h-16.83Z"/><path class="d" d="M219.1,20.18c-1.22-1.95-2.8-3.48-4.75-4.58-1.95-1.1-4.18-1.65-6.69-1.65-5.45,0-9.8,2.03-13.05,6.08s-4.88,9.61-4.88,16.68c0,6.13,1.65,11.15,4.96,15.07,3.31,3.91,7.38,5.87,12.22,5.87,2.94,0,5.4-.56,7.37-1.67,1.98-1.11,3.74-2.9,5.28-5.36v5.74h10.53V.42h-10.98V20.18Zm-2.09,24.93c-1.6,2.28-3.93,3.42-6.99,3.42s-5.35-1.15-6.84-3.46c-1.52-2.28-2.28-5.33-2.28-9.16,0-3.55,.74-6.52,2.22-8.91s3.81-3.59,6.97-3.59c2.08,0,3.9,.66,5.47,1.98,2.56,2.18,3.84,5.8,3.84,10.87,0,3.62-.8,6.57-2.39,8.85Z"/><polygon class="d" points="272.2 21.7 250.32 21.7 250.32 .34 238.73 .34 238.73 56.35 250.32 56.35 250.32 31.35 272.2 31.35 272.2 56.35 283.83 56.35 283.83 .34 272.2 .34 272.2 21.7"/><path class="d" d="M326.14,34.77c0,3.85-.46,6.66-1.37,8.44-1.42,3.14-4.5,4.71-9.23,4.71s-7.85-1.57-9.27-4.71c-.91-1.77-1.37-4.59-1.37-8.44V.34h-11.89V34.77c0,5.95,.92,10.59,2.77,13.91,3.47,6.08,10.06,9.12,19.76,9.12s16.28-3.04,19.72-9.12c1.85-3.32,2.77-7.95,2.77-13.91V.34h-11.89V34.77Z"/><g><path class="d" d="M384.84,46.09c-4.56,0-7.97-1.05-10.23-3.14-2.26-2.09-3.39-5.24-3.39-9.42v-12.56c0-4.25,1.14-7.44,3.42-9.56,2.28-2.12,5.7-3.19,10.25-3.19s7.95,1.02,10.07,3.05,3.29,5.34,3.51,9.93l-6.93,.46c-.22-3.11-.79-5.2-1.73-6.28-.94-1.08-2.59-1.62-4.97-1.62s-4.16,.59-5.17,1.76-1.52,3.14-1.52,5.91v11.64c0,2.71,.51,4.64,1.52,5.78,1.02,1.14,2.74,1.71,5.17,1.71s4.02-.53,4.94-1.59,1.51-3.1,1.76-6.12l6.93,.46c-.22,4.5-1.39,7.75-3.53,9.77s-5.5,3.03-10.09,3.03Z"/><path class="d" d="M429.55,39.3c-1.02,2.5-2.44,4.25-4.27,5.27s-4.64,1.52-8.43,1.52-6.8-.88-9.12-2.66c-2.33-1.77-3.49-4.41-3.49-7.92v-7.39c0-3.45,1.13-6.09,3.4-7.92,2.26-1.83,5.3-2.75,9.12-2.75s6.88,.92,9.1,2.77c2.22,1.85,3.33,4.54,3.33,8.08v4.85h-18.02v2.68c0,1.82,.46,3.17,1.39,4.07,.92,.89,2.39,1.34,4.39,1.34,1.76,0,3.13-.26,4.13-.79,1-.52,1.82-1.46,2.47-2.82l6,1.66Zm-18.38-11.64v1.43h11.09v-1.02c0-2.12-.43-3.64-1.29-4.55-.86-.91-2.28-1.36-4.25-1.36s-3.39,.43-4.25,1.29c-.86,.86-1.29,2.26-1.29,4.2Z"/><path class="d" d="M436.57,45.63V17.91h6.93v4.85h1.39c.71-1.66,1.82-2.96,3.35-3.9,1.52-.94,3.26-1.41,5.2-1.41,2.52,0,4.5,.79,5.94,2.38,1.43,1.59,2.15,3.77,2.15,6.54v19.26h-6.93V27.61c0-1.48-.35-2.6-1.04-3.37-.69-.77-1.7-1.15-3.03-1.15-1.17,0-2.37,.33-3.6,.99-1.23,.66-2.37,1.66-3.42,2.98v18.57h-6.93Z"/><path class="d" d="M495.7,47.34c0,2.52-.94,4.49-2.82,5.89-1.88,1.4-4.3,2.1-7.25,2.1h-8.32c-3.23,0-5.75-.59-7.55-1.78-1.8-1.19-2.7-2.79-2.7-4.83,0-1.51,.45-2.72,1.34-3.65,.89-.92,2.06-1.46,3.51-1.62v-.92c-1.11-.28-2.03-.77-2.77-1.48-.74-.71-1.11-1.8-1.11-3.28s.52-2.84,1.55-3.9c1.03-1.06,2.49-1.69,4.37-1.87v-.88c-1.57-.43-2.7-1.13-3.4-2.1-.69-.97-1.04-2.03-1.04-3.16v-.65c0-2.25,.97-4.03,2.91-5.34s4.48-1.96,7.62-1.96h15.11v4.62l-7.39-.97v.88c1.17,.31,2.1,.92,2.79,1.83,.69,.91,1.04,1.87,1.04,2.89v.69c0,2.22-.93,3.96-2.79,5.22-1.86,1.26-4.47,1.89-7.83,1.89h-4.8c-.92,0-1.64,.19-2.15,.55s-.76,1-.76,1.89,.29,1.49,.88,1.89c.58,.4,1.43,.6,2.54,.6h9.33c2.86,0,5.2,.6,7,1.8,1.8,1.2,2.7,3.08,2.7,5.64Zm-18.39,3.6h8.55c1.2,0,2.18-.2,2.93-.6,.75-.4,1.13-1.17,1.13-2.31s-.35-1.91-1.06-2.31c-.71-.4-1.63-.6-2.77-.6h-12.38v2.68c0,1.05,.3,1.83,.9,2.36s1.5,.79,2.7,.79Zm3.28-19.82c1.57,0,2.73-.31,3.49-.92,.75-.62,1.13-1.49,1.13-2.63v-1.89c0-1.11-.39-1.96-1.16-2.54-.77-.58-1.92-.88-3.46-.88s-2.73,.29-3.49,.88c-.75,.59-1.13,1.43-1.13,2.54v1.89c0,1.14,.38,2.02,1.13,2.63,.75,.62,1.92,.92,3.49,.92Z"/></g></g></g></g></svg>