<?xml version="1.0" encoding="UTF-8"?><svg xmlns="http://www.w3.org/2000/svg" viewBox="0 0 512.01 58.14"><defs><style>.f{fill:#86a46b;}.g{fill:#4b0076;}</style></defs><g id="a"/><g id="b"><g id="c"><g id="d"><g id="e"><g><g><path class="f" d="M384.66,48.3c-4.53,0-7.93-1.04-10.18-3.12-2.25-2.08-3.38-5.21-3.38-9.37v-12.5c0-4.23,1.13-7.4,3.4-9.51,2.27-2.11,5.67-3.17,10.2-3.17s7.9,1.01,10.02,3.03c2.11,2.02,3.28,5.31,3.49,9.88l-6.89,.46c-.21-3.09-.79-5.18-1.72-6.25s-2.58-1.61-4.94-1.61-4.13,.58-5.15,1.75c-1.01,1.16-1.52,3.12-1.52,5.88v11.58c0,2.7,.51,4.61,1.52,5.74,1.01,1.13,2.73,1.7,5.15,1.7s4-.53,4.92-1.58c.92-1.06,1.5-3.09,1.75-6.09l6.89,.46c-.21,4.47-1.39,7.71-3.51,9.72-2.13,2.01-5.48,3.01-10.04,3.01h0Z"/><path class="f" d="M403.73,47.84V11.09h25.73v5.51h-18.84v8.73h16.54v5.51h-16.54v11.49h18.84v5.51h-25.73Z"/><path class="f" d="M452.52,47.84l-10.66-27.61v27.61h-5.97V11.09h8.13l11.16,28.85V11.09h5.97V47.84h-8.63Z"/><path class="f" d="M481.19,48.3c-4.38,0-7.74-1.12-10.08-3.35-2.34-2.24-3.52-5.44-3.52-9.6v-11.58c0-4.23,1.16-7.47,3.47-9.74s5.61-3.4,9.9-3.4,7.21,.97,9.33,2.92c2.11,1.95,3.28,4.82,3.49,8.61l-6.89,.46c-.21-2.39-.77-4.07-1.65-5.03-.89-.96-2.3-1.45-4.23-1.45-2.39,0-4.07,.6-5.05,1.81-.98,1.21-1.47,3.3-1.47,6.27v10.66c0,2.91,.51,4.95,1.52,6.13,1.01,1.18,2.73,1.77,5.15,1.77s3.91-.63,4.85-1.88c.93-1.26,1.39-3.43,1.35-6.52h-6.66v-5.51h13.55v6.25c0,4.23-1.13,7.48-3.38,9.76-2.25,2.28-5.48,3.42-9.67,3.42h0Z"/><path class="f" d="M493.63,57.03v-5.01h11.49V5.28h-11.49V0h18.38V57.03h-18.38Z"/><path class="f" d="M351.68,57.03V0h18.38V5.28h-11.49V52.02h11.49v5.01h-18.38Z"/></g><polygon class="g" points="11.7 .68 0 .68 0 56.69 39.44 56.69 39.44 46.62 11.7 46.62 11.7 .68"/><rect class="g" x="46.82" y=".34" width="10.98" height="9.99"/><rect class="g" x="46.82" y="15.27" width="10.98" height="41.42"/><path class="g" d="M97.74,17.65c-2.72-2.24-6.22-3.36-10.5-3.36-3.42,0-6.24,.84-8.47,2.51-1.24,.94-2.56,2.47-3.95,4.6v-6.04h-10.45V56.69h10.8v-22.42c0-2.56,.35-4.66,1.06-6.31,1.37-3.12,3.89-4.67,7.56-4.67,2.99,0,5.02,1.06,6.08,3.19,.58,1.17,.87,2.84,.87,5.02v25.19h11.1V28.8c0-5.19-1.37-8.91-4.09-11.15h-.01Z"/><polygon class="g" points="145.26 15.46 131.84 15.46 118.35 31.04 118.35 .87 107.71 .87 107.71 56.69 118.35 56.69 118.35 43.66 122.84 38.99 132.75 56.69 145.83 56.69 130.78 31.31 145.26 15.46"/><path class="g" d="M181.6,22.23c-1.8-2.79-4.08-4.83-6.84-6.12-2.76-1.29-5.86-1.94-9.31-1.94-5.8,0-10.52,1.91-14.15,5.74-3.64,3.83-5.45,9.32-5.45,16.49,0,7.65,2.01,13.17,6.04,16.57,4.03,3.39,8.68,5.09,13.95,5.09,6.38,0,11.35-2.01,14.9-6.04,2.28-2.53,3.56-5.03,3.84-7.49h-11.06c-.58,1.22-1.25,2.17-2.01,2.85-1.39,1.27-3.2,1.9-5.43,1.9-2.1,0-3.9-.52-5.4-1.56-2.46-1.67-3.76-4.59-3.91-8.74h28.35c.05-3.57-.06-6.31-.34-8.21-.48-3.24-1.53-6.09-3.15-8.55h-.03Zm-24.59,9.62c.35-2.69,1.22-4.81,2.6-6.38,1.38-1.57,3.33-2.36,5.83-2.36,2.31,0,4.24,.74,5.79,2.22s2.43,3.65,2.6,6.52h-16.82Z"/><path class="g" d="M219.1,20.52c-1.22-1.95-2.8-3.48-4.75-4.58s-4.18-1.65-6.69-1.65c-5.45,0-9.8,2.03-13.05,6.08s-4.88,9.61-4.88,16.68c0,6.13,1.65,11.15,4.96,15.07,3.31,3.91,7.38,5.87,12.22,5.87,2.94,0,5.4-.56,7.37-1.67,1.98-1.11,3.74-2.9,5.28-5.36v5.74h10.53V.76h-10.98V20.52h0Zm-2.09,24.93c-1.6,2.28-3.93,3.42-6.99,3.42s-5.35-1.15-6.84-3.46c-1.52-2.28-2.28-5.33-2.28-9.16,0-3.55,.74-6.52,2.22-8.91s3.81-3.59,6.97-3.59c2.08,0,3.9,.66,5.47,1.98,2.56,2.18,3.84,5.8,3.84,10.87,0,3.62-.8,6.57-2.39,8.85Z"/><polygon class="g" points="272.2 22.04 250.32 22.04 250.32 .68 238.73 .68 238.73 56.69 250.32 56.69 250.32 31.69 272.2 31.69 272.2 56.69 283.83 56.69 283.83 .68 272.2 .68 272.2 22.04"/><path class="g" d="M326.14,35.11c0,3.85-.46,6.66-1.37,8.44-1.42,3.14-4.5,4.71-9.23,4.71s-7.85-1.57-9.27-4.71c-.91-1.77-1.37-4.59-1.37-8.44V.68h-11.89V35.11c0,5.95,.92,10.59,2.77,13.91,3.47,6.08,10.06,9.12,19.76,9.12s16.28-3.04,19.72-9.12c1.85-3.32,2.77-7.95,2.77-13.91V.68h-11.89V35.11h0Z"/></g></g></g></g></g></svg>